<?xml version="1.0" standalone="no"?>
<!DOCTYPE svg PUBLIC "-//W3C//DTD SVG 20010904//EN"
 "http://www.w3.org/TR/2001/REC-SVG-20010904/DTD/svg10.dtd">
<svg version="1.0" xmlns="http://www.w3.org/2000/svg"
 width="512.000000pt" height="512.000000pt" viewBox="0 0 512.000000 512.000000"
 preserveAspectRatio="xMidYMid meet">
<metadata>
Created by potrace 1.14, written by Peter Selinger 2001-2017
</metadata>
<g transform="translate(0.000000,512.000000) scale(0.100000,-0.100000)"
fill="#000000" stroke="none">
<path d="M390 5104 c-30 -8 -80 -26 -110 -41 -72 -35 -188 -151 -223 -223 -60
-124 -57 -62 -57 -1405 l0 -1230 28 48 c90 151 239 279 435 369 37 18 67 34
67 37 0 3 -19 19 -41 34 -52 38 -129 131 -172 209 -68 123 -97 252 -97 429 0
127 22 224 76 333 l37 75 -31 35 c-100 114 -202 313 -209 410 -9 105 28 147
113 131 29 -5 67 -36 194 -160 87 -84 167 -156 178 -159 13 -5 49 8 107 38
110 57 194 89 315 120 169 44 235 51 460 51 253 0 324 -12 466 -80 183 -88
284 -247 284 -446 0 -152 -72 -292 -200 -393 -247 -194 -664 -216 -988 -52
-48 24 -103 56 -122 70 -31 24 -35 24 -43 10 -16 -29 0 -175 27 -247 25 -67
81 -163 119 -204 19 -21 25 -22 126 -17 297 17 464 -77 421 -235 -32 -119
-161 -174 -405 -174 -87 0 -148 5 -185 16 l-55 15 -53 -45 c-122 -105 -182
-233 -203 -435 -22 -204 15 -334 123 -433 145 -135 402 -197 678 -166 168 20
280 65 459 184 101 68 190 143 296 252 50 50 101 94 113 97 31 8 66 -23 80
-70 53 -178 -55 -445 -247 -611 -313 -269 -716 -389 -1208 -360 -260 15 -425
54 -602 143 -128 65 -266 193 -324 301 -15 28 -16 0 -17 -420 0 -489 2 -510
57 -625 35 -72 151 -188 223 -223 126 -61 -23 -57 2280 -57 2303 0 2154 -4
2280 57 72 35 188 151 223 223 56 115 57 137 55 621 l-3 444 -24 -39 c-46 -73
-119 -153 -200 -218 -359 -287 -977 -374 -1576 -222 -391 99 -649 217 -817
372 -104 96 -141 215 -82 261 34 27 81 27 204 0 52 -11 109 -22 125 -25 l31
-6 12 179 c6 98 19 225 27 283 37 245 153 704 237 935 52 144 164 376 225 467
94 141 205 223 290 216 33 -3 39 -7 50 -38 15 -44 16 -270 2 -398 -14 -127
-65 -397 -145 -767 l-65 -300 -26 -378 c-14 -208 -24 -380 -21 -382 2 -3 55
-16 117 -30 327 -74 566 -46 774 92 109 73 185 181 218 313 19 76 17 320 -5
430 -27 142 -84 266 -154 333 l-29 28 -87 -13 c-99 -14 -252 -2 -343 28 -104
34 -161 109 -150 199 8 80 66 130 182 162 76 20 248 27 335 14 l75 -12 28 33
c66 78 104 197 113 353 13 208 -50 356 -190 451 -125 84 -370 127 -608 106
-244 -22 -372 -60 -637 -188 -186 -90 -252 -114 -313 -114 -50 0 -81 29 -72
68 28 122 232 325 452 450 307 175 629 237 1042 202 391 -33 683 -158 850
-363 60 -73 123 -198 144 -282 13 -55 14 -7 15 530 1 642 1 647 -56 765 -35
72 -151 188 -223 223 -127 61 23 57 -2285 56 -1816 0 -2118 -2 -2165 -15z"/>
<path d="M1345 3774 c-11 -2 -45 -9 -75 -15 -113 -22 -304 -136 -269 -161 36
-25 165 -80 245 -104 74 -22 110 -27 209 -28 180 -2 252 33 262 127 11 91 -51
154 -171 176 -58 11 -160 13 -201 5z"/>
<path d="M5105 3119 c-4 -23 -27 -81 -51 -129 -65 -131 -175 -243 -322 -331
l-44 -26 49 -28 c129 -75 245 -180 336 -304 l47 -63 0 461 c0 254 -2 461 -4
461 -2 0 -7 -19 -11 -41z"/>
</g>
</svg>
